<mxfile host="65bd71144e">
    <diagram id="D7JbA3rbqrtlkXFsoiE-" name="Page-1">
        <mxGraphModel dx="617" dy="472" grid="1" gridSize="10" guides="1" tooltips="1" connect="1" arrows="1" fold="1" page="1" pageScale="1" pageWidth="850" pageHeight="1100" background="none" math="0" shadow="0">
            <root>
                <mxCell id="0"/>
                <mxCell id="1" parent="0"/>
                <mxCell id="3" value="&lt;h1&gt;Sanity&lt;/h1&gt;&lt;p&gt;&lt;/p&gt;&lt;ol&gt;&lt;li&gt;Next.js&lt;/li&gt;&lt;li&gt;Sanity&lt;/li&gt;&lt;li&gt;Node-mailer&lt;/li&gt;&lt;li&gt;SendGrid (https://css-tricks.com/how-to-create-a-commenting-engine-with-next-js-and-sanity/)&lt;/li&gt;&lt;li&gt;https://docs.sendgrid.com/ui/sending-email/how-to-send-an-email-with-dynamic-transactional-templates#design-a-dynamic-transactional-template&lt;br&gt;&lt;/li&gt;&lt;li&gt;Redux&lt;/li&gt;&lt;/ol&gt;&lt;p&gt;&lt;/p&gt;" style="text;html=1;strokeColor=none;fillColor=none;spacing=5;spacingTop=-20;whiteSpace=wrap;overflow=hidden;rounded=0;" parent="1" vertex="1">
                    <mxGeometry x="40" y="210" width="270" height="360" as="geometry"/>
                </mxCell>
                <mxCell id="4" value="&lt;h1&gt;Firebase&lt;/h1&gt;&lt;p&gt;&lt;/p&gt;&lt;ol&gt;&lt;li&gt;SendGrid + Twillio?&lt;/li&gt;&lt;li&gt;Paytment provider&lt;/li&gt;&lt;li&gt;https://fireship.io/lessons/sendgrid-transactional-email-guide/&lt;/li&gt;&lt;/ol&gt;&lt;p&gt;&lt;/p&gt;" style="text;html=1;strokeColor=none;fillColor=none;spacing=5;spacingTop=-20;whiteSpace=wrap;overflow=hidden;rounded=0;" parent="1" vertex="1">
                    <mxGeometry x="360" y="200" width="280" height="220" as="geometry"/>
                </mxCell>
                <mxCell id="5" value="&lt;h1&gt;Features&lt;/h1&gt;&lt;div&gt;Payfast,&amp;nbsp; PDF maker, instant notifier (for owner), order confirmation&lt;/div&gt;&lt;p&gt;&lt;/p&gt;" style="text;html=1;strokeColor=none;fillColor=none;spacing=5;spacingTop=-20;whiteSpace=wrap;overflow=hidden;rounded=0;" parent="1" vertex="1">
                    <mxGeometry x="30" y="60" width="470" height="110" as="geometry"/>
                </mxCell>
            </root>
        </mxGraphModel>
    </diagram>
</mxfile>